<?xml version="1.0" standalone="no"?><svg xmlns="http://www.w3.org/2000/svg" viewBox="0 0 1440 320"><path fill="#e7006a90" fill-opacity="1" d="M0,256L21.8,261.3C43.6,267,87,277,131,256C174.5,235,218,181,262,181.3C305.5,181,349,235,393,240C436.4,245,480,203,524,160C567.3,117,611,75,655,96C698.2,117,742,203,785,218.7C829.1,235,873,181,916,149.3C960,117,1004,107,1047,133.3C1090.9,160,1135,224,1178,240C1221.8,256,1265,224,1309,186.7C1352.7,149,1396,107,1418,85.3L1440,64L1440,0L1418.2,0C1396.4,0,1353,0,1309,0C1265.5,0,1222,0,1178,0C1134.5,0,1091,0,1047,0C1003.6,0,960,0,916,0C872.7,0,829,0,785,0C741.8,0,698,0,655,0C610.9,0,567,0,524,0C480,0,436,0,393,0C349.1,0,305,0,262,0C218.2,0,175,0,131,0C87.3,0,44,0,22,0L0,0Z"></path></svg>